<mxfile host="app.diagrams.net" modified="2021-09-13T12:16:50.801Z" agent="5.0 (Windows NT 10.0; Win64; x64) AppleWebKit/537.36 (KHTML, like Gecko) Chrome/93.0.4577.63 Safari/537.36 Edg/93.0.961.44" etag="AO4rukqwEQIdPv2ZDqUQ" version="15.2.2" type="github">
  <diagram id="EKybde87Ft661kJ4t00Z" name="Page-1">
    <mxGraphModel dx="1234" dy="468" grid="1" gridSize="10" guides="1" tooltips="1" connect="1" arrows="1" fold="1" page="1" pageScale="1" pageWidth="827" pageHeight="1169" math="0" shadow="0">
      <root>
        <mxCell id="0" />
        <mxCell id="1" parent="0" />
        <mxCell id="Ft2iugiApCw_Q3Kf73hO-1" value="瑶台平台的需求和缺陷管理及流转的机制" style="swimlane;childLayout=stackLayout;resizeParent=1;resizeParentMax=0;startSize=20;horizontal=0;horizontalStack=1;" vertex="1" parent="1">
          <mxGeometry x="210" y="930" width="140" height="480" as="geometry" />
        </mxCell>
        <mxCell id="Ft2iugiApCw_Q3Kf73hO-4" value="建行高层" style="swimlane;startSize=20;" vertex="1" parent="Ft2iugiApCw_Q3Kf73hO-1">
          <mxGeometry x="20" width="120" height="480" as="geometry" />
        </mxCell>
        <mxCell id="Ft2iugiApCw_Q3Kf73hO-3" value="建行平台开发团队" style="swimlane;startSize=20;" vertex="1" parent="1">
          <mxGeometry x="710" y="930" width="120" height="480" as="geometry" />
        </mxCell>
        <mxCell id="Ft2iugiApCw_Q3Kf73hO-5" value="建行项目团队" style="swimlane;startSize=20;" vertex="1" parent="1">
          <mxGeometry x="590" y="930" width="120" height="480" as="geometry" />
        </mxCell>
        <mxCell id="Ft2iugiApCw_Q3Kf73hO-2" value="建行项目资源池团队" style="swimlane;startSize=20;" vertex="1" parent="1">
          <mxGeometry x="470" y="930" width="120" height="480" as="geometry" />
        </mxCell>
        <mxCell id="Ft2iugiApCw_Q3Kf73hO-7" value="建行项目资源池团队" style="swimlane;startSize=20;" vertex="1" parent="1">
          <mxGeometry x="350" y="930" width="120" height="480" as="geometry" />
        </mxCell>
      </root>
    </mxGraphModel>
  </diagram>
</mxfile>
